<svg xmlns="http://www.w3.org/2000/svg" viewBox="0 0 120 100" width="120" height="100">
  <!-- Beast Paws / Legs - Neutral Fur (#9a8a78 & #6b5d50) -->

  <!-- Left Leg Fur Base (Viewer Left) -->
  <path d="M 37 34 C 33 46, 32 58, 35 68 C 36 74, 38 80, 39 84 L 51 84 C 52 80, 53 72, 53 66 C 53 56, 52 46, 49 34 Z" fill="#9a8a78" stroke="#0b0704" stroke-width="2.5" stroke-linejoin="round"/>
  <!-- Left Leg Fur Tuft on Knee Outer Flank -->
  <path d="M 34 50 L 29 55 L 34 58 Z" fill="#9a8a78" stroke="#0b0704" stroke-width="1.8" stroke-linejoin="round"/>
  <!-- Left Leg Dark Fur Accent & Shadow (#6b5d50) -->
  <path d="M 45 42 C 43 54, 42 66, 43 78 L 47 78 C 48 66, 49 54, 49 42 Z" fill="#6b5d50"/>

  <!-- Right Leg Fur Base (Viewer Right) -->
  <path d="M 83 34 C 87 46, 88 58, 85 68 C 84 74, 82 80, 81 84 L 69 84 C 68 80, 67 72, 67 66 C 67 56, 68 46, 71 34 Z" fill="#9a8a78" stroke="#0b0704" stroke-width="2.5" stroke-linejoin="round"/>
  <!-- Right Leg Fur Tuft on Knee Outer Flank -->
  <path d="M 86 50 L 91 55 L 86 58 Z" fill="#9a8a78" stroke="#0b0704" stroke-width="1.8" stroke-linejoin="round"/>
  <!-- Right Leg Dark Fur Accent & Shadow (#6b5d50) -->
  <path d="M 75 42 C 77 54, 78 66, 77 78 L 73 78 C 72 66, 71 54, 71 42 Z" fill="#6b5d50"/>

  <!-- Left Paw (Viewer Left) -->
  <path d="M 38 82 C 32 86, 26 91, 26 96 C 26 98, 28 98, 30 98 L 52 98 C 54 98, 55 97, 54 95 C 53 90, 48 85, 46 82 Z" fill="#9a8a78" stroke="#0b0704" stroke-width="2.4" stroke-linejoin="round"/>
  <!-- Left Paw Toe Pads (Three White Tips #f7f1e6) -->
  <path d="M 27 96 C 27 93, 31 92, 34 94 C 34 98, 28 98, 27 96 Z" fill="#f7f1e6" stroke="#0b0704" stroke-width="1.5"/>
  <path d="M 35 94 C 36 91, 42 91, 43 94 C 43 98, 36 98, 35 94 Z" fill="#f7f1e6" stroke="#0b0704" stroke-width="1.5"/>
  <path d="M 44 94 C 46 92, 51 93, 53 96 C 52 98, 45 98, 44 94 Z" fill="#f7f1e6" stroke="#0b0704" stroke-width="1.5"/>
  <!-- Left Paw Claws -->
  <line x1="30" y1="98" x2="30" y2="100" stroke="#0b0704" stroke-width="1.8" stroke-linecap="round"/>
  <line x1="39" y1="98" x2="39" y2="100" stroke="#0b0704" stroke-width="1.8" stroke-linecap="round"/>
  <line x1="48" y1="98" x2="48" y2="100" stroke="#0b0704" stroke-width="1.8" stroke-linecap="round"/>

  <!-- Right Paw (Viewer Right) -->
  <path d="M 82 82 C 88 86, 94 91, 94 96 C 94 98, 92 98, 90 98 L 68 98 C 66 98, 65 97, 66 95 C 67 90, 72 85, 74 82 Z" fill="#9a8a78" stroke="#0b0704" stroke-width="2.4" stroke-linejoin="round"/>
  <!-- Right Paw Toe Pads (Three White Tips #f7f1e6) -->
  <path d="M 93 96 C 93 93, 89 92, 86 94 C 86 98, 92 98, 93 96 Z" fill="#f7f1e6" stroke="#0b0704" stroke-width="1.5"/>
  <path d="M 85 94 C 84 91, 78 91, 77 94 C 77 98, 84 98, 85 94 Z" fill="#f7f1e6" stroke="#0b0704" stroke-width="1.5"/>
  <path d="M 76 94 C 74 92, 69 93, 67 96 C 68 98, 75 98, 76 94 Z" fill="#f7f1e6" stroke="#0b0704" stroke-width="1.5"/>
  <!-- Right Paw Claws -->
  <line x1="90" y1="98" x2="90" y2="100" stroke="#0b0704" stroke-width="1.8" stroke-linecap="round"/>
  <line x1="81" y1="98" x2="81" y2="100" stroke="#0b0704" stroke-width="1.8" stroke-linecap="round"/>
  <line x1="72" y1="98" x2="72" y2="100" stroke="#0b0704" stroke-width="1.8" stroke-linecap="round"/>

  <!-- Puffed Trunk Hose (Short Breeches) - y=0..38 -->
  <!-- Left Puffed Breech (Viewer Left) - Red (#b3221f) -->
  <path d="M 34 6 C 26 12, 25 24, 28 34 C 33 38, 44 40, 52 38 C 57 36, 59 32, 60 28 C 50 26, 40 20, 34 6 Z" fill="#b3221f" stroke="#0b0704" stroke-width="2.6" stroke-linejoin="round"/>
  <!-- Left Breech Gold Slashes / Stripes (#f2c14e) -->
  <path d="M 33 12 C 30 20, 31 28, 34 35 L 39 36 C 36 28, 36 20, 39 12 Z" fill="#f2c14e" stroke="#0b0704" stroke-width="1.4"/>
  <path d="M 44 14 C 43 22, 44 30, 47 37 L 51 36 C 49 28, 48 20, 49 14 Z" fill="#f2c14e" stroke="#0b0704" stroke-width="1.4"/>

  <!-- Right Puffed Breech (Viewer Right) - Blue (#1d4f80) -->
  <path d="M 86 6 C 94 12, 95 24, 92 34 C 87 38, 76 40, 68 38 C 63 36, 61 32, 60 28 C 70 26, 80 20, 86 6 Z" fill="#1d4f80" stroke="#0b0704" stroke-width="2.6" stroke-linejoin="round"/>
  <!-- Right Breech Gold Slashes / Stripes (#f2c14e) -->
  <path d="M 87 12 C 90 20, 89 28, 86 35 L 81 36 C 84 28, 84 20, 81 12 Z" fill="#f2c14e" stroke="#0b0704" stroke-width="1.4"/>
  <path d="M 76 14 C 77 22, 76 30, 73 37 L 69 36 C 71 28, 72 20, 71 14 Z" fill="#f2c14e" stroke="#0b0704" stroke-width="1.4"/>

  <!-- Breech Bottom Scalloped Lace Cuffs (#f7f1e6 & #f2c14e) -->
  <!-- Left Scalloped Cuff -->
  <path d="M 28 34 C 33 37, 40 37, 44 35 C 48 37, 54 36, 56 32" stroke="#0b0704" stroke-width="2.2" fill="none"/>
  <path d="M 30 35 L 34 40 L 38 35 L 42 40 L 46 35 L 50 40 L 54 35" fill="#f7f1e6" stroke="#0b0704" stroke-width="1.4"/>
  <polygon points="34,40 36,42 32,42" fill="#f2c14e"/>
  <polygon points="42,40 44,42 40,42" fill="#f2c14e"/>
  <polygon points="50,40 52,42 48,42" fill="#f2c14e"/>

  <!-- Right Scalloped Cuff -->
  <path d="M 92 34 C 87 37, 80 37, 76 35 C 72 37, 66 36, 64 32" stroke="#0b0704" stroke-width="2.2" fill="none"/>
  <path d="M 90 35 L 86 40 L 82 35 L 78 40 L 74 35 L 70 40 L 66 35" fill="#f7f1e6" stroke="#0b0704" stroke-width="1.4"/>
  <polygon points="86,40 88,42 84,42" fill="#f2c14e"/>
  <polygon points="78,40 80,42 76,42" fill="#f2c14e"/>
  <polygon points="70,40 72,42 68,42" fill="#f2c14e"/>

  <!-- Center Gold Codpiece Ornament (#f2c14e) -->
  <polygon points="60,10 65,18 60,26 55,18" fill="#f2c14e" stroke="#0b0704" stroke-width="1.8"/>
  <circle cx="60" cy="18" r="2" fill="#b3221f"/>

  <!-- Gold Waistband Trim (#f2c14e) -->
  <path d="M 34 0 L 86 0 L 86 6 L 34 6 Z" fill="#f2c14e" stroke="#0b0704" stroke-width="2"/>
  <polygon points="60,1 63,4 60,6 57,4" fill="#0b0704"/>

  <!-- Fur Texture Woodcut Hatches -->
  <path d="M 36 62 L 40 60 M 35 70 L 40 68 M 48 60 L 44 62 M 48 68 L 44 70" stroke="#0b0704" stroke-width="1.4" stroke-linecap="round"/>
  <path d="M 84 62 L 80 60 M 85 70 L 80 68 M 72 60 L 76 62 M 72 68 L 76 70" stroke="#0b0704" stroke-width="1.4" stroke-linecap="round"/>
</svg>
