<svg xmlns="http://www.w3.org/2000/svg" viewBox="0 0 100 100" width="100" height="100">
  <!-- Round Head Top Dome Silhouette (#b3221f) -->
  <!-- Top = Back / Nape (y~18), Bottom = Face / Eye Brows (y~82) -->
  <path d="M 26 22 C 38 16, 62 16, 74 22 C 86 32, 88 62, 76 76 C 64 86, 36 86, 24 76 C 12 62, 14 32, 26 22 Z" fill="#b3221f" stroke="#0b0704" stroke-width="3" stroke-linejoin="round"/>

  <!-- Ear Muff Dial Capsules on Sides from Above (#1d4f80, #f2c14e) -->
  <rect x="10" y="38" width="6" height="18" rx="3" fill="#1d4f80" stroke="#0b0704" stroke-width="1.8"/>
  <circle cx="13" cy="47" r="2" fill="#f2c14e"/>
  <rect x="84" y="38" width="6" height="18" rx="3" fill="#1d4f80" stroke="#0b0704" stroke-width="1.8"/>
  <circle cx="87" cy="47" r="2" fill="#f2c14e"/>

  <!-- Rear Crown Trim Arc at Top (y=22..28) (#f2c14e) -->
  <path d="M 32 26 C 42 22, 58 22, 68 26" fill="none" stroke="#f2c14e" stroke-width="1.8" stroke-linecap="round"/>

  <!-- Big Round Eye Brow Bulges at Bottom Edge (y=72..84) (#1d4f80) -->
  <path d="M 26 72 C 32 78, 44 80, 48 76 C 52 80, 64 78, 74 72" fill="none" stroke="#1d4f80" stroke-width="3" stroke-linecap="round"/>
  <path d="M 28 73 C 34 79, 44 81, 48 77 C 52 81, 62 79, 72 73" fill="none" stroke="#f2c14e" stroke-width="1.5" stroke-linecap="round"/>

  <!-- Center Spring Antenna Mounting Base from Above (#1d4f80, #f2c14e) -->
  <circle cx="50" cy="46" r="10" fill="#1d4f80" stroke="#0b0704" stroke-width="2"/>
  <circle cx="50" cy="46" r="7" fill="none" stroke="#f2c14e" stroke-width="1.4"/>

  <!-- Coiled Spring Spiral Wire from Above (#5d666e) -->
  <path d="M 50 46 C 46 44, 46 38, 52 38 C 58 38, 58 44, 52 46 C 48 48, 50 52, 54 50" fill="none" stroke="#5d666e" stroke-width="2.2" stroke-linecap="round"/>

  <!-- Shiny Brass Top Ball of Antenna (#f2c14e) -->
  <circle cx="54" cy="38" r="5" fill="#f2c14e" stroke="#0b0704" stroke-width="1.8"/>
  <circle cx="52.5" cy="36.5" r="1.5" fill="#f7f1e6"/>

  <!-- Woodcut Soft Curvature Hatches -->
  <path d="M 26 36 C 32 32, 40 30, 46 30" stroke="#0b0704" stroke-width="1.5" stroke-linecap="round" fill="none"/>
  <path d="M 74 36 C 68 32, 60 30, 54 30" stroke="#0b0704" stroke-width="1.5" stroke-linecap="round" fill="none"/>
  <path d="M 28 62 C 34 66, 42 68, 46 68" stroke="#0b0704" stroke-width="1.5" stroke-linecap="round" fill="none"/>
  <path d="M 72 62 C 66 66, 58 68, 54 68" stroke="#0b0704" stroke-width="1.5" stroke-linecap="round" fill="none"/>
</svg>
